<?xml version="1.0" standalone="no"?>
<!DOCTYPE svg PUBLIC "-//W3C//DTD SVG 20010904//EN"
 "http://www.w3.org/TR/2001/REC-SVG-20010904/DTD/svg10.dtd">
<svg version="1.0" xmlns="http://www.w3.org/2000/svg"
 width="512.000000pt" height="512.000000pt" viewBox="0 0 512.000000 512.000000"
 preserveAspectRatio="xMidYMid meet">

<g transform="translate(0.000000,512.000000) scale(0.100000,-0.100000)"
fill="#000000" stroke="none">
<path d="M520 4830 c-12 -8 -16 -45 -18 -214 -3 -196 -2 -206 17 -225 20 -20
31 -21 344 -21 276 0 326 2 345 16 21 15 22 20 22 215 0 119 -4 208 -10 220
-10 18 -25 19 -348 19 -194 0 -343 -4 -352 -10z"/>
<path d="M2610 3586 l-225 -225 -52 49 c-68 63 -130 84 -227 78 -85 -6 -161
-41 -207 -97 l-28 -34 -62 28 c-49 22 -76 27 -131 27 -65 -1 -89 -8 -190 -60
-5 -2 -8 37 -8 87 l0 91 -615 0 -615 0 0 -530 0 -530 406 0 407 0 39 35 c21
20 59 46 85 58 l45 22 16 -25 c39 -61 143 -139 188 -140 7 0 13 34 16 94 9
172 41 199 233 199 96 1 119 -3 178 -26 69 -27 139 -70 168 -103 9 -11 24 -50
33 -89 19 -76 47 -146 85 -211 l25 -41 160 -5 c89 -2 292 -4 451 -3 160 1 507
2 772 3 l482 2 10 38 c42 148 -62 314 -211 338 -35 6 -38 9 -38 39 0 45 -55
149 -98 185 -108 89 -284 78 -381 -23 -18 -19 -39 -33 -45 -31 -8 3 -10 -10
-8 -41 l4 -45 -331 0 -331 0 0 35 c0 49 37 141 74 183 41 47 123 99 180 114
42 11 46 15 46 43 0 86 61 229 131 309 l39 44 -14 53 c-8 30 -24 75 -35 101
-43 101 -142 228 -177 228 -10 0 -116 -97 -244 -224z m-720 -386 c89 -45 117
-117 64 -159 -35 -27 -61 -26 -106 4 -68 46 -127 24 -148 -55 -18 -68 -68 -96
-116 -66 -37 25 -45 56 -30 115 24 92 90 159 180 182 42 10 113 1 156 -21z
m379 -196 c38 -19 62 -40 82 -72 35 -56 37 -85 4 -117 -36 -37 -76 -33 -114
10 -54 62 -100 63 -135 4 -23 -39 -61 -54 -98 -38 -56 23 -62 72 -19 141 36
56 113 98 181 98 30 0 65 -9 99 -26z"/>
<path d="M604 1726 c-111 -25 -173 -70 -161 -116 3 -13 -6 -22 -32 -35 -190
-89 -335 -260 -386 -455 -22 -84 -23 -226 -1 -310 31 -123 80 -206 180 -306
98 -98 185 -150 321 -195 68 -22 83 -23 485 -26 l415 -4 -43 22 c-178 90 -211
344 -61 473 23 19 78 49 123 66 45 17 155 59 246 95 91 35 198 75 238 90 81
30 81 31 56 116 -52 174 -179 327 -346 415 -59 30 -68 39 -68 63 0 37 -33 66
-105 93 -51 18 -81 22 -200 22 -118 0 -149 -3 -200 -21 l-60 -22 -60 21 c-78
26 -254 34 -341 14z"/>
</g>
</svg>
